<svg xmlns="http://www.w3.org/2000/svg" viewBox="0 0 32 32" shape-rendering="crispEdges">
  <rect width="32" height="32" fill="#1a3a26"/>
  <!-- Bigger pixel-art "A" -->
  <g fill="#b8d97a">
    <rect x="11" y="6"  width="10" height="2"/>
    <rect x="9"  y="8"  width="4"  height="2"/>
    <rect x="19" y="8"  width="4"  height="2"/>
    <rect x="7"  y="10" width="4"  height="2"/>
    <rect x="21" y="10" width="4"  height="2"/>
    <rect x="7"  y="12" width="4"  height="2"/>
    <rect x="21" y="12" width="4"  height="2"/>
    <rect x="7"  y="14" width="18" height="2"/>
    <rect x="7"  y="16" width="4"  height="2"/>
    <rect x="21" y="16" width="4"  height="2"/>
    <rect x="7"  y="18" width="4"  height="2"/>
    <rect x="21" y="18" width="4"  height="2"/>
    <rect x="7"  y="20" width="4"  height="4"/>
    <rect x="21" y="20" width="4"  height="4"/>
  </g>
  <rect x="27" y="4" width="2" height="2" fill="#b53b2a"/>
</svg>
