<svg xmlns="http://www.w3.org/2000/svg" viewBox="0 0 16 16" shape-rendering="crispEdges">
  <!-- Background: acrid green -->
  <rect width="16" height="16" fill="#1a3a26"/>
  <!-- Pixel-art 'A' on the screen -->
  <g fill="#b8d97a">
    <rect x="5"  y="3" width="6" height="1"/>
    <rect x="4"  y="4" width="2" height="1"/>
    <rect x="10" y="4" width="2" height="1"/>
    <rect x="3"  y="5" width="2" height="1"/>
    <rect x="11" y="5" width="2" height="1"/>
    <rect x="3"  y="6" width="2" height="1"/>
    <rect x="11" y="6" width="2" height="1"/>
    <rect x="3"  y="7" width="10" height="1"/>
    <rect x="3"  y="8" width="2" height="1"/>
    <rect x="11" y="8" width="2" height="1"/>
    <rect x="3"  y="9" width="2" height="1"/>
    <rect x="11" y="9" width="2" height="1"/>
    <rect x="3"  y="10" width="2" height="1"/>
    <rect x="11" y="10" width="2" height="1"/>
    <rect x="3"  y="11" width="2" height="1"/>
    <rect x="11" y="11" width="2" height="1"/>
  </g>
  <!-- Tiny power LED -->
  <rect x="13" y="2" width="1" height="1" fill="#b53b2a"/>
</svg>
